# xmcd CD database file
#
# Track frame offsets:
#	150
#	21020
#	35800
#	54820
#	69447
#
# Disc length: 1125 seconds
#
# Revision: 0
# Processed by: cddbd v1.5.2PL0 Copyright (c) Steve Scherf et al.
# Submitted via: CDex 1.51
#
DISCID=38046305
DTITLE=DEPAPEPE - Sky! Sky! Sky!
DYEAR=2004
DGENRE=Acoustic
TTITLE0=Sky! Sky! Sky!
TTITLE1=Sabamba
TTITLE2=さざなみ
TTITLE3=TIME
TTITLE4=微風
EXTD=YEAR: 2004
EXTT0=
EXTT1=
EXTT2=
EXTT3=
EXTT4=
PLAYORDER=
